<svg xmlns="http://www.w3.org/2000/svg" version="1.1" xmlns:xlink="http://www.w3.org/1999/xlink" xmlns:svgjs="http://svgjs.dev/svgjs" width="2000" height="2000" viewBox="0 0 2000 2000"><g transform="matrix(1,0,0,1,0,0)"><svg viewBox="0 0 280 280" data-background-color="#000000" preserveAspectRatio="xMidYMid meet" height="2000" width="2000" xmlns="http://www.w3.org/2000/svg" xmlns:xlink="http://www.w3.org/1999/xlink"><g id="tight-bounds" transform="matrix(1,0,0,1,0,0)"><svg viewBox="0 0 280 280" height="280" width="280"><g><svg viewBox="0 0 280 280" height="280" width="280"><g><svg viewBox="0 0 280 280" height="280" width="280"><g id="textblocktransform"><svg viewBox="0 0 280 280" height="280" width="280" id="textblock"><g><svg viewBox="0 0 280 280" height="280" width="280"><g transform="matrix(1,0,0,1,57.50420886156945,57.50420886156945)"><svg viewBox="0 0 164.9915822768611 164.9915822768611" height="164.9915822768611" width="164.9915822768611"><g id="icon-0"><svg xmlns="http://www.w3.org/2000/svg" xmlns:xlink="http://www.w3.org/1999/xlink" version="1.1" x="24.74873734152917" y="24.748737341529164" viewBox="7.5 8.146 85 85" enable-background="new 0 0 100 100" xml:space="preserve" height="115.49410759380275" width="115.49410759380275" class="icon-xg-0" data-fill-palette-color="quaternary" id="xg-0"><circle cx="49.97" cy="10.646" r="2.5" fill="#000000" data-fill-palette-color="quaternary"></circle><path d="M25 16.265c-1.11 0.82-1.36 2.38-0.55 3.5 0.489 0.67 1.25 1.03 2.029 1.03 0.511 0 1.021-0.16 1.471-0.48 1.109-0.82 1.359-2.38 0.54-3.5C27.68 15.706 26.12 15.456 25 16.265z" fill="#000000" data-fill-palette-color="quaternary"></path><path d="M62.33 15.085c1.05 0 2.04-0.67 2.38-1.73 0.43-1.32-0.3-2.73-1.61-3.15-1.31-0.43-2.72 0.29-3.149 1.61-0.42 1.31 0.3 2.72 1.609 3.15C61.81 15.045 62.069 15.085 62.33 15.085z" fill="#000000" data-fill-palette-color="quaternary"></path><path d="M37.609 15.095c0.261 0 0.521-0.04 0.78-0.12 1.311-0.43 2.03-1.84 1.601-3.15-0.431-1.31-1.841-2.03-3.15-1.6-1.31 0.42-2.03 1.83-1.6 3.15C35.58 14.425 36.56 15.095 37.609 15.095z" fill="#000000" data-fill-palette-color="quaternary"></path><path d="M16.16 29.155c0.439 0.33 0.96 0.48 1.47 0.48 0.77 0 1.53-0.35 2.02-1.02 0.82-1.12 0.57-2.69-0.55-3.5s-2.68-0.56-3.49 0.55C14.8 26.785 15.04 28.345 16.16 29.155z" fill="#000000" data-fill-palette-color="quaternary"></path><path d="M12.72 35.905c-1.31-0.42-2.72 0.29-3.15 1.61-0.43 1.31 0.29 2.72 1.601 3.15 0.26 0.08 0.52 0.12 0.78 0.12 1.05 0 2.029-0.67 2.38-1.73h-0.011C14.75 37.745 14.03 36.335 12.72 35.905z" fill="#000000" data-fill-palette-color="quaternary"></path><path d="M74.95 16.235c-1.12-0.81-2.681-0.56-3.49 0.55-0.811 1.12-0.57 2.68 0.55 3.5v-0.01c0.44 0.33 0.96 0.48 1.47 0.48 0.771 0 1.53-0.36 2.021-1.03C76.31 18.605 76.06 17.045 74.95 16.235z" fill="#000000" data-fill-palette-color="quaternary"></path><path d="M88.03 40.725c0.26 0 0.52-0.04 0.779-0.12 1.311-0.43 2.03-1.84 1.601-3.16-0.431-1.31-1.841-2.03-3.15-1.6-1.31 0.43-2.03 1.84-1.6 3.15C86 40.055 86.979 40.725 88.03 40.725z" fill="#000000" data-fill-palette-color="quaternary"></path><path d="M80.859 25.075c-1.119 0.81-1.359 2.38-0.55 3.49 0.49 0.67 1.25 1.03 2.03 1.03 0.51 0 1.02-0.16 1.47-0.48 1.11-0.81 1.36-2.38 0.54-3.49 0-0.01 0-0.01 0-0.01C83.54 24.505 81.979 24.265 80.859 25.075z" fill="#000000" data-fill-palette-color="quaternary"></path><path d="M92.5 50.646c0-0.66-0.271-1.3-0.73-1.77-0.93-0.93-2.609-0.93-3.54 0-0.46 0.47-0.729 1.11-0.729 1.77 0 0.66 0.27 1.3 0.729 1.77 0.471 0.46 1.11 0.73 1.771 0.73s1.3-0.27 1.77-0.73C92.229 51.945 92.5 51.305 92.5 50.646z" fill="#000000" data-fill-palette-color="quaternary"></path><path d="M72.05 80.975c-1.11 0.82-1.36 2.38-0.55 3.5 0.49 0.67 1.25 1.02 2.03 1.02 0.51 0 1.02-0.15 1.47-0.47 1.109-0.82 1.359-2.38 0.55-3.5C74.729 80.416 73.17 80.166 72.05 80.975z" fill="#000000" data-fill-palette-color="quaternary"></path><path d="M90.43 63.775c0.43-1.31-0.29-2.72-1.61-3.14-1.31-0.43-2.72 0.29-3.14 1.6-0.43 1.31 0.29 2.72 1.601 3.15 0.26 0.08 0.52 0.12 0.77 0.12C89.109 65.505 90.09 64.835 90.43 63.775z" fill="#000000" data-fill-palette-color="quaternary"></path><path d="M19.14 76.215c1.11-0.81 1.36-2.38 0.54-3.49-0.81-1.12-2.37-1.36-3.49-0.55-1.12 0.82-1.359 2.38-0.54 3.49 0 0.01 0 0.01 0 0.01 0.48 0.67 1.25 1.02 2.021 1.02C18.18 76.695 18.689 76.545 19.14 76.215z" fill="#000000" data-fill-palette-color="quaternary"></path><path d="M62.39 91.195c0.25 0 0.51-0.04 0.771-0.13 1.31-0.42 2.029-1.83 1.6-3.15-0.42-1.31-1.84-2.03-3.15-1.6-1.31 0.42-2.029 1.84-1.6 3.15C60.35 90.525 61.33 91.195 62.39 91.195z" fill="#000000" data-fill-palette-color="quaternary"></path><path d="M80.899 76.175c0.44 0.32 0.96 0.48 1.471 0.48 0.77 0 1.529-0.36 2.02-1.03 0.811-1.12 0.561-2.68-0.55-3.5-1.12-0.81-2.68-0.56-3.49 0.56C79.53 73.795 79.78 75.365 80.899 76.175z" fill="#000000" data-fill-palette-color="quaternary"></path><path d="M11.96 65.565c0.26 0 0.52-0.04 0.78-0.12 1.31-0.43 2.029-1.84 1.6-3.15v-0.01c-0.43-1.31-1.84-2.02-3.15-1.6-1.31 0.43-2.029 1.84-1.6 3.16C9.93 64.896 10.91 65.565 11.96 65.565z" fill="#000000" data-fill-palette-color="quaternary"></path><path d="M24.5 81.565c-0.811 1.12-0.57 2.68 0.55 3.49 0.44 0.32 0.96 0.48 1.47 0.48 0.771 0 1.53-0.36 2.021-1.04 0.81-1.11 0.56-2.68-0.55-3.49C26.87 80.195 25.31 80.445 24.5 81.565z" fill="#000000" data-fill-palette-color="quaternary"></path><path d="M36.899 91.085c0.25 0.08 0.511 0.12 0.771 0.12 1.06 0 2.03-0.67 2.38-1.73 0.42-1.31-0.3-2.72-1.61-3.15-1.319-0.42-2.729 0.3-3.149 1.61C34.859 89.255 35.58 90.666 36.899 91.085z" fill="#000000" data-fill-palette-color="quaternary"></path><circle cx="50.03" cy="90.646" r="2.5" fill="#000000" data-fill-palette-color="quaternary"></circle><path d="M7.5 50.646c0 0.66 0.27 1.3 0.729 1.77 0.471 0.46 1.11 0.73 1.771 0.73s1.3-0.27 1.77-0.73c0.46-0.47 0.73-1.11 0.73-1.77 0-0.66-0.271-1.3-0.73-1.77-0.93-0.93-2.6-0.93-3.54 0C7.77 49.345 7.5 49.985 7.5 50.646z" fill="#000000" data-fill-palette-color="quaternary"></path></svg></g></svg></g><g id="text-0"></g><g id="text-1"></g></svg></g></svg></g></svg></g><g></g></svg></g><defs></defs><mask id="092cbbbe-9a9a-4981-a814-dd858d3a4390"><g id="SvgjsG3409"><svg viewBox="0 0 280 280" height="280" width="280"><g><svg viewBox="0 0 280 280" height="280" width="280"><g><svg viewBox="0 0 280 280" height="280" width="280"><g id="SvgjsG3408"><svg viewBox="0 0 280 280" height="280" width="280" id="SvgjsSvg3407"><g><svg viewBox="0 0 280 280" height="280" width="280"><g transform="matrix(1,0,0,1,57.50420886156945,57.50420886156945)"><svg viewBox="0 0 164.9915822768611 164.9915822768611" height="164.9915822768611" width="164.9915822768611"><g id="SvgjsG3406"><circle r="82" cx="82.49579113843055" cy="82.49579113843055" fill="black"></circle><svg xmlns="http://www.w3.org/2000/svg" xmlns:xlink="http://www.w3.org/1999/xlink" version="1.1" x="24.74873734152917" y="24.748737341529164" viewBox="7.5 8.146 85 85" enable-background="new 0 0 100 100" xml:space="preserve" height="115.49410759380275" width="115.49410759380275" class="icon-xg-0" data-fill-palette-color="quaternary" id="SvgjsSvg3405"><circle cx="49.97" cy="10.646" r="2.5" fill="black"></circle><path d="M25 16.265c-1.11 0.82-1.36 2.38-0.55 3.5 0.489 0.67 1.25 1.03 2.029 1.03 0.511 0 1.021-0.16 1.471-0.48 1.109-0.82 1.359-2.38 0.54-3.5C27.68 15.706 26.12 15.456 25 16.265z" fill="black"></path><path d="M62.33 15.085c1.05 0 2.04-0.67 2.38-1.73 0.43-1.32-0.3-2.73-1.61-3.15-1.31-0.43-2.72 0.29-3.149 1.61-0.42 1.31 0.3 2.72 1.609 3.15C61.81 15.045 62.069 15.085 62.33 15.085z" fill="black"></path><path d="M37.609 15.095c0.261 0 0.521-0.04 0.78-0.12 1.311-0.43 2.03-1.84 1.601-3.15-0.431-1.31-1.841-2.03-3.15-1.6-1.31 0.42-2.03 1.83-1.6 3.15C35.58 14.425 36.56 15.095 37.609 15.095z" fill="black"></path><path d="M16.16 29.155c0.439 0.33 0.96 0.48 1.47 0.48 0.77 0 1.53-0.35 2.02-1.02 0.82-1.12 0.57-2.69-0.55-3.5s-2.68-0.56-3.49 0.55C14.8 26.785 15.04 28.345 16.16 29.155z" fill="black"></path><path d="M12.72 35.905c-1.31-0.42-2.72 0.29-3.15 1.61-0.43 1.31 0.29 2.72 1.601 3.15 0.26 0.08 0.52 0.12 0.78 0.12 1.05 0 2.029-0.67 2.38-1.73h-0.011C14.75 37.745 14.03 36.335 12.72 35.905z" fill="black"></path><path d="M74.95 16.235c-1.12-0.81-2.681-0.56-3.49 0.55-0.811 1.12-0.57 2.68 0.55 3.5v-0.01c0.44 0.33 0.96 0.48 1.47 0.48 0.771 0 1.53-0.36 2.021-1.03C76.31 18.605 76.06 17.045 74.95 16.235z" fill="black"></path><path d="M88.03 40.725c0.26 0 0.52-0.04 0.779-0.12 1.311-0.43 2.03-1.84 1.601-3.16-0.431-1.31-1.841-2.03-3.15-1.6-1.31 0.43-2.03 1.84-1.6 3.15C86 40.055 86.979 40.725 88.03 40.725z" fill="black"></path><path d="M80.859 25.075c-1.119 0.81-1.359 2.38-0.55 3.49 0.49 0.67 1.25 1.03 2.03 1.03 0.51 0 1.02-0.16 1.47-0.48 1.11-0.81 1.36-2.38 0.54-3.49 0-0.01 0-0.01 0-0.01C83.54 24.505 81.979 24.265 80.859 25.075z" fill="black"></path><path d="M92.5 50.646c0-0.66-0.271-1.3-0.73-1.77-0.93-0.93-2.609-0.93-3.54 0-0.46 0.47-0.729 1.11-0.729 1.77 0 0.66 0.27 1.3 0.729 1.77 0.471 0.46 1.11 0.73 1.771 0.73s1.3-0.27 1.77-0.73C92.229 51.945 92.5 51.305 92.5 50.646z" fill="black"></path><path d="M72.05 80.975c-1.11 0.82-1.36 2.38-0.55 3.5 0.49 0.67 1.25 1.02 2.03 1.02 0.51 0 1.02-0.15 1.47-0.47 1.109-0.82 1.359-2.38 0.55-3.5C74.729 80.416 73.17 80.166 72.05 80.975z" fill="black"></path><path d="M90.43 63.775c0.43-1.31-0.29-2.72-1.61-3.14-1.31-0.43-2.72 0.29-3.14 1.6-0.43 1.31 0.29 2.72 1.601 3.15 0.26 0.08 0.52 0.12 0.77 0.12C89.109 65.505 90.09 64.835 90.43 63.775z" fill="black"></path><path d="M19.14 76.215c1.11-0.81 1.36-2.38 0.54-3.49-0.81-1.12-2.37-1.36-3.49-0.55-1.12 0.82-1.359 2.38-0.54 3.49 0 0.01 0 0.01 0 0.01 0.48 0.67 1.25 1.02 2.021 1.02C18.18 76.695 18.689 76.545 19.14 76.215z" fill="black"></path><path d="M62.39 91.195c0.25 0 0.51-0.04 0.771-0.13 1.31-0.42 2.029-1.83 1.6-3.15-0.42-1.31-1.84-2.03-3.15-1.6-1.31 0.42-2.029 1.84-1.6 3.15C60.35 90.525 61.33 91.195 62.39 91.195z" fill="black"></path><path d="M80.899 76.175c0.44 0.32 0.96 0.48 1.471 0.48 0.77 0 1.529-0.36 2.02-1.03 0.811-1.12 0.561-2.68-0.55-3.5-1.12-0.81-2.68-0.56-3.49 0.56C79.53 73.795 79.78 75.365 80.899 76.175z" fill="black"></path><path d="M11.96 65.565c0.26 0 0.52-0.04 0.78-0.12 1.31-0.43 2.029-1.84 1.6-3.15v-0.01c-0.43-1.31-1.84-2.02-3.15-1.6-1.31 0.43-2.029 1.84-1.6 3.16C9.93 64.896 10.91 65.565 11.96 65.565z" fill="black"></path><path d="M24.5 81.565c-0.811 1.12-0.57 2.68 0.55 3.49 0.44 0.32 0.96 0.48 1.47 0.48 0.771 0 1.53-0.36 2.021-1.04 0.81-1.11 0.56-2.68-0.55-3.49C26.87 80.195 25.31 80.445 24.5 81.565z" fill="black"></path><path d="M36.899 91.085c0.25 0.08 0.511 0.12 0.771 0.12 1.06 0 2.03-0.67 2.38-1.73 0.42-1.31-0.3-2.72-1.61-3.15-1.319-0.42-2.729 0.3-3.149 1.61C34.859 89.255 35.58 90.666 36.899 91.085z" fill="black"></path><circle cx="50.03" cy="90.646" r="2.5" fill="black"></circle><path d="M7.5 50.646c0 0.66 0.27 1.3 0.729 1.77 0.471 0.46 1.11 0.73 1.771 0.73s1.3-0.27 1.77-0.73c0.46-0.47 0.73-1.11 0.73-1.77 0-0.66-0.271-1.3-0.73-1.77-0.93-0.93-2.6-0.93-3.54 0C7.77 49.345 7.5 49.985 7.5 50.646z" fill="black"></path></svg></g></svg></g><g id="SvgjsG3404"><path d="M26.988 96.154v0c1.01 0.319 1.138 1.673 0.384 4.061v0c-0.564 1.785-1.451 2.89-2.66 3.316v0c-1.298 0.477-3.153 0.375-5.564-0.307v0l-10.599-3.349-0.699 2.215c-0.129 0.407-0.355 0.689-0.679 0.846-0.33 0.155-0.63 0.191-0.899 0.105v0c-0.269-0.085-0.506-0.272-0.711-0.56-0.205-0.288-0.232-0.669-0.083-1.141v0l0.765-2.421-5.39-1.919c-0.377-0.199-0.627-0.483-0.748-0.853-0.128-0.372-0.139-0.726-0.033-1.061 0.106-0.335 0.298-0.588 0.575-0.759 0.278-0.172 0.634-0.19 1.067-0.053v0l5.452 1.722 1.101-3.483c0.129-0.407 0.361-0.676 0.699-0.808 0.337-0.132 0.641-0.155 0.909-0.07v0c0.341 0.108 0.586 0.304 0.734 0.589 0.148 0.285 0.158 0.631 0.029 1.038v0l-1.1 3.484 8.936 2.823c2.487 0.786 4.019 1.176 4.598 1.171 0.572-0.007 1.018-0.162 1.337-0.465 0.319-0.303 0.564-0.724 0.734-1.262v0l0.475-2.015c0.118-0.374 0.327-0.625 0.627-0.754 0.292-0.124 0.539-0.154 0.743-0.09z" fill="white"></path><path d="M30.433 70.133v0c-1.03-0.748-1.938-1.658-2.724-2.73-0.792-1.076-1.354-2.258-1.686-3.546v0c-0.704-2.696-0.104-5.356 1.8-7.978 1.908-2.628 4.253-4.025 7.034-4.191v0c2.633-0.137 5.064 0.602 7.291 2.22v0c2.255 1.637 3.708 3.717 4.36 6.239v0c0.732 2.716 0.144 5.389-1.764 8.016-1.904 2.623-4.261 4.007-7.07 4.153v0c-2.572 0.182-4.986-0.546-7.241-2.183zM32.458 67.343v0c0.685 0.497 1.478 0.933 2.38 1.307 0.907 0.378 1.865 0.563 2.874 0.556v0c2.105 0.04 3.778-0.794 5.019-2.504v0c1.31-1.804 1.587-3.656 0.832-5.556v0c-0.716-1.778-1.873-3.247-3.47-4.407v0c-1.659-1.205-3.387-1.829-5.182-1.874v0c-2.098-0.12-3.79 0.705-5.075 2.476v0c-1.241 1.709-1.5 3.571-0.776 5.583v0c0.551 1.701 1.684 3.174 3.398 4.419z" fill="white"></path><path d="M80.295 33.999l-1.015-1.544c-0.096 3.06-1.413 5.424-3.948 7.091v0c-2.3 1.512-4.701 1.78-7.202 0.805v0c-2.206-0.913-4.083-2.549-5.633-4.906v0c-2.6-3.956-3.03-7.473-1.29-10.551v0c0.553-1.088 1.278-1.927 2.175-2.516 0.897-0.59 1.676-1.027 2.336-1.313 0.66-0.286 1.353-0.453 2.079-0.502v0c1.488-0.179 2.844 0.024 4.069 0.611v0l-5.753-8.754c-0.291-0.443-0.349-0.857-0.175-1.244 0.165-0.388 0.423-0.698 0.773-0.928v0c0.356-0.234 0.731-0.341 1.124-0.319 0.389 0.016 0.729 0.245 1.02 0.688v0l14.183 21.58c0.272 0.414 0.33 0.821 0.172 1.22-0.157 0.4-0.354 0.677-0.59 0.832-0.236 0.155-0.452 0.264-0.649 0.328-0.187 0.066-0.402 0.071-0.644 0.016v0c-0.435-0.011-0.779-0.208-1.032-0.594zM74.492 37.121v0c3.599-2.366 3.878-5.863 0.836-10.491v0c-1.957-2.978-4.136-4.333-6.537-4.065v0c-0.913 0.089-1.841 0.444-2.784 1.064-0.943 0.62-1.602 1.321-1.977 2.102-0.373 0.772-0.565 1.602-0.575 2.489v0c0.02 1.634 0.612 3.336 1.776 5.107v0c1.723 2.622 3.611 4.148 5.663 4.578v0c1.191 0.271 2.39 0.01 3.598-0.784z" fill="white"></path><path d="M104.789 14.645v0c-0.268-1.244-0.337-2.528-0.207-3.851 0.129-1.33 0.499-2.585 1.111-3.765v0c1.275-2.478 3.497-4.058 6.665-4.74 3.175-0.684 5.853-0.159 8.035 1.574v0c2.053 1.655 3.369 3.828 3.948 6.519v0c0.587 2.724 0.281 5.243-0.917 7.556v0c-1.268 2.511-3.489 4.109-6.664 4.792-3.168 0.682-5.847 0.14-8.036-1.627v0c-2.037-1.581-3.348-3.734-3.935-6.458zM108.159 13.919v0c0.178 0.827 0.478 1.681 0.9 2.562 0.423 0.887 1.013 1.665 1.769 2.332v0c1.541 1.435 3.344 1.93 5.408 1.486v0c2.179-0.469 3.622-1.663 4.328-3.582v0c0.654-1.802 0.773-3.668 0.357-5.599v0c-0.432-2.004-1.301-3.623-2.608-4.854v0c-1.482-1.49-3.293-2.004-5.431-1.544v0c-2.065 0.445-3.5 1.658-4.305 3.641v0c-0.725 1.634-0.864 3.487-0.418 5.558z" fill="white"></path><path d="M183.955 26.191l8.928-24.01c0.197-0.529 0.503-0.848 0.918-0.958 0.415-0.11 0.755-0.116 1.019-0.017 0.264 0.098 0.474 0.195 0.631 0.289 0.153 0.101 0.281 0.262 0.381 0.483v0c0.281 0.369 0.324 0.818 0.127 1.347v0l-8.927 24.01c-0.185 0.497-0.491 0.808-0.921 0.935-0.42 0.123-0.827 0.111-1.22-0.035v0c-0.4-0.149-0.703-0.401-0.908-0.756-0.203-0.362-0.212-0.791-0.028-1.288z" fill="white"></path><path d="M229.37 22.585v0c-0.327 0.46-0.752 0.723-1.273 0.792-0.523 0.058-1.07-0.116-1.642-0.524-0.577-0.411-0.921-0.871-1.031-1.38-0.112-0.519-0.004-1.008 0.323-1.468v0c0.283-0.398 0.689-0.629 1.216-0.693 0.517-0.062 1.07 0.116 1.658 0.535 0.588 0.419 0.932 0.879 1.032 1.381 0.095 0.507 0.001 0.959-0.283 1.357zM211.468 41.158l9.765-13.712c0.307-0.432 0.69-0.666 1.147-0.703 0.461-0.043 0.807 0.017 1.037 0.181 0.23 0.164 0.392 0.334 0.485 0.51 0.094 0.177 0.159 0.388 0.196 0.633v0c0.18 0.424 0.116 0.851-0.192 1.283v0l-9.765 13.712c-0.307 0.432-0.685 0.653-1.131 0.663-0.438 0.009-0.827-0.108-1.169-0.351v0c-0.347-0.247-0.574-0.569-0.681-0.966-0.102-0.402 0-0.819 0.308-1.25z" fill="white"></path><path d="M251.314 58.268v0c-1.848-2.45-3.526-3.063-5.034-1.839v0c-0.989 0.746-1.134 1.964-0.437 3.653v0c0.223 0.581 0.484 1.19 0.784 1.827 0.305 0.632 0.625 1.33 0.959 2.094 0.33 0.768 0.623 1.586 0.881 2.452v0c0.441 1.167 0.526 2.262 0.255 3.285-0.265 1.019-0.862 1.879-1.79 2.58v0c-1.692 1.276-3.544 1.545-5.559 0.806v0c-1.824-0.658-3.466-1.983-4.926-3.975v0c-1.102-1.461-1.934-3.088-2.494-4.881v0c-0.198-0.73-0.268-1.384-0.212-1.96 0.055-0.567 0.222-0.956 0.503-1.168 0.286-0.216 0.579-0.295 0.88-0.238 0.307 0.053 0.556 0.205 0.747 0.458 0.195 0.258 0.346 0.601 0.453 1.029 0.102 0.432 0.258 0.965 0.469 1.598v0c0.5 1.657 1.047 2.878 1.639 3.664 0.597 0.791 1.125 1.388 1.585 1.791 0.459 0.403 0.951 0.718 1.474 0.943v0c1.198 0.423 2.251 0.293 3.157-0.391v0c0.648-0.489 0.995-1.069 1.039-1.741 0.041-0.677-0.078-1.406-0.357-2.187-0.283-0.786-0.588-1.539-0.915-2.258-0.326-0.728-0.654-1.455-0.984-2.179-0.326-0.728-0.601-1.447-0.826-2.156-0.229-0.715-0.325-1.396-0.289-2.045v0c-0.04-1.47 0.558-2.671 1.793-3.603v0c1.576-1.189 3.218-1.39 4.926-0.601v0c1.504 0.589 2.936 1.784 4.296 3.585v0c1.38 1.829 2.215 3.496 2.506 5.001v0c0.227 1.294 0.043 2.165-0.55 2.612v0c-0.225 0.17-0.477 0.213-0.755 0.131-0.28-0.073-0.504-0.223-0.674-0.448v0c-0.319-0.423-0.486-0.793-0.501-1.109-0.024-0.318-0.06-0.657-0.108-1.018-0.048-0.36-0.173-0.732-0.375-1.113v0c-0.298-0.749-0.818-1.615-1.56-2.599z" fill="white"></path><path d="M257.435 108.94v0c-1.007 0.33-1.9-0.695-2.68-3.075v0c-0.583-1.778-0.507-3.193 0.228-4.245v0c0.776-1.145 2.342-2.143 4.698-2.995v0l10.564-3.46-0.723-2.207c-0.133-0.405-0.114-0.766 0.057-1.083 0.178-0.319 0.401-0.522 0.669-0.61v0c0.268-0.088 0.569-0.074 0.904 0.04 0.334 0.115 0.579 0.408 0.733 0.879v0l0.791 2.412 5.498-1.584c0.422-0.059 0.791 0.027 1.105 0.257 0.321 0.228 0.536 0.509 0.645 0.842 0.109 0.333 0.101 0.651-0.025 0.953-0.126 0.302-0.404 0.523-0.835 0.665v0l-5.434 1.78 1.138 3.472c0.133 0.405 0.101 0.76-0.097 1.064-0.197 0.304-0.43 0.499-0.699 0.587v0c-0.34 0.111-0.653 0.095-0.939-0.051-0.286-0.145-0.496-0.42-0.629-0.825v0l-1.138-3.472-8.905 2.917c-2.478 0.812-3.951 1.389-4.418 1.73-0.461 0.339-0.733 0.725-0.816 1.158-0.083 0.433-0.036 0.917 0.14 1.453v0l0.789 1.913c0.122 0.373 0.099 0.699-0.07 0.979-0.165 0.271-0.348 0.44-0.551 0.506z" fill="white"></path><path d="M6.801 140.41c0-1.829 1.483-3.312 3.312-3.312 1.829 0 3.312 1.483 3.311 3.312 0 1.829-1.483 3.312-3.311 3.311-1.829 0-3.312-1.483-3.312-3.311z" fill="white"></path><path d="M266.89 140.41c0-1.829 1.483-3.312 3.312-3.312 1.829 0 3.312 1.483 3.311 3.312 0 1.829-1.483 3.312-3.311 3.311-1.829 0-3.312-1.483-3.312-3.311z" fill="white"></path></g><g id="SvgjsG3403"><path d="M10.034 190.021v0c-1.01 0.319-1.893-0.715-2.647-3.103v0c-0.564-1.785-0.473-3.199 0.273-4.243v0c0.788-1.137 2.365-2.118 4.73-2.945v0l10.599-3.348-0.699-2.215c-0.129-0.407-0.105-0.768 0.069-1.082 0.181-0.317 0.406-0.518 0.675-0.603v0c0.269-0.085 0.57-0.068 0.904 0.05 0.333 0.118 0.575 0.414 0.723 0.886v0l0.765 2.421 5.514-1.525c0.423-0.054 0.79 0.035 1.103 0.268 0.318 0.231 0.53 0.514 0.636 0.849 0.106 0.335 0.094 0.652-0.035 0.953-0.129 0.3-0.41 0.519-0.842 0.656v0l-5.452 1.722 1.1 3.484c0.129 0.407 0.092 0.761-0.108 1.062-0.201 0.301-0.435 0.495-0.704 0.58v0c-0.341 0.108-0.654 0.088-0.939-0.06-0.285-0.148-0.492-0.426-0.621-0.833v0l-1.1-3.484-8.936 2.823c-2.487 0.786-3.965 1.347-4.436 1.683-0.464 0.334-0.74 0.717-0.828 1.149-0.087 0.432-0.046 0.916 0.124 1.455v0l0.769 1.922c0.118 0.374 0.091 0.7-0.08 0.978-0.167 0.269-0.353 0.436-0.557 0.5z" fill="white"></path><path d="M30.344 210.751v0c1.03-0.748 2.177-1.329 3.439-1.744 1.269-0.419 2.566-0.588 3.893-0.505v0c2.782 0.166 5.124 1.56 7.028 4.182 1.908 2.628 2.51 5.29 1.806 7.987v0c-0.685 2.546-2.141 4.628-4.368 6.245v0c-2.255 1.637-4.683 2.375-7.283 2.213v0c-2.809-0.146-5.168-1.532-7.076-4.161-1.904-2.623-2.49-5.292-1.758-8.008v0c0.624-2.502 2.063-4.572 4.319-6.209zM32.369 213.541v0c-0.685 0.497-1.345 1.117-1.98 1.858-0.641 0.746-1.114 1.599-1.419 2.561v0c-0.69 1.989-0.415 3.838 0.826 5.547v0c1.31 1.804 2.985 2.641 5.025 2.512v0c1.912-0.13 3.667-0.775 5.266-1.935v0c1.659-1.205 2.788-2.653 3.387-4.346v0c0.764-1.958 0.503-3.822-0.782-5.592v0c-1.241-1.709-2.931-2.532-5.069-2.468v0c-1.788-0.003-3.539 0.618-5.254 1.863z" fill="white"></path><path d="M70.881 261.144l1.015-1.544c-2.847 1.126-5.539 0.855-8.075-0.812v0c-2.3-1.512-3.499-3.609-3.597-6.291v0c-0.037-2.387 0.72-4.759 2.269-7.117v0c2.6-3.956 5.658-5.746 9.174-5.37v0c1.218 0.076 2.276 0.409 3.172 0.998 0.897 0.59 1.608 1.131 2.132 1.623 0.524 0.493 0.953 1.062 1.285 1.71v0c0.755 1.295 1.106 2.621 1.054 3.977v0l5.753-8.754c0.291-0.443 0.648-0.661 1.072-0.654 0.422-0.003 0.808 0.111 1.159 0.342v0c0.356 0.234 0.603 0.536 0.739 0.905 0.14 0.364 0.064 0.767-0.227 1.209v0l-14.182 21.58c-0.272 0.414-0.623 0.628-1.052 0.642-0.429 0.014-0.762-0.056-0.997-0.211-0.236-0.155-0.422-0.31-0.559-0.465-0.135-0.146-0.225-0.341-0.27-0.585v0c-0.163-0.404-0.118-0.798 0.135-1.183zM65.713 257.056v0c3.599 2.366 6.92 1.234 9.963-3.395v0c1.957-2.978 2.337-5.516 1.137-7.613v0c-0.444-0.802-1.138-1.513-2.08-2.134-0.943-0.62-1.848-0.947-2.715-0.981-0.857-0.036-1.695 0.117-2.513 0.46v0c-1.492 0.666-2.82 1.885-3.983 3.656v0c-1.723 2.622-2.375 4.96-1.955 7.015v0c0.224 1.201 0.939 2.198 2.146 2.992z" fill="white"></path><path d="M104.765 266.282v0c0.268-1.244 0.734-2.443 1.397-3.595 0.665-1.159 1.519-2.15 2.562-2.974v0c2.182-1.733 4.857-2.258 8.026-1.576 3.175 0.684 5.4 2.264 6.675 4.742v0c1.189 2.354 1.494 4.876 0.915 7.566v0c-0.587 2.724-1.902 4.894-3.946 6.508v0c-2.189 1.767-4.871 2.308-8.046 1.625-3.168-0.682-5.386-2.279-6.655-4.79v0c-1.205-2.28-1.515-4.781-0.928-7.506zM108.135 267.008v0c-0.178 0.827-0.256 1.729-0.234 2.705 0.021 0.983 0.238 1.934 0.653 2.854v0c0.814 1.942 2.253 3.135 4.317 3.579v0c2.179 0.469 3.986-0.025 5.419-1.483v0c1.337-1.373 2.214-3.025 2.629-4.955v0c0.432-2.004 0.305-3.837-0.378-5.497v0c-0.738-1.968-2.176-3.182-4.315-3.643v0c-2.065-0.445-3.872 0.071-5.421 1.546v0c-1.333 1.191-2.223 2.822-2.67 4.894z" fill="white"></path><path d="M189.857 270.5l-8.928-24.01c-0.197-0.529-0.174-0.97 0.069-1.325 0.243-0.354 0.496-0.581 0.761-0.679 0.264-0.098 0.486-0.163 0.666-0.193 0.182-0.024 0.384 0.015 0.605 0.116v0c0.454 0.095 0.779 0.408 0.975 0.937v0l8.928 24.01c0.185 0.497 0.156 0.933-0.086 1.309-0.238 0.367-0.553 0.624-0.946 0.771v0c-0.4 0.149-0.794 0.156-1.182 0.021-0.39-0.141-0.678-0.46-0.862-0.957z" fill="white"></path><path d="M209.593 230.464v0c0.327 0.46 0.438 0.947 0.332 1.462-0.116 0.513-0.46 0.974-1.032 1.38-0.577 0.411-1.125 0.586-1.642 0.524-0.527-0.064-0.954-0.326-1.281-0.786v0c-0.283-0.398-0.369-0.856-0.258-1.375 0.11-0.509 0.46-0.974 1.049-1.393 0.588-0.419 1.136-0.594 1.642-0.523 0.51 0.076 0.907 0.313 1.19 0.711zM221.291 253.455l-9.765-13.712c-0.307-0.432-0.404-0.87-0.29-1.314 0.11-0.45 0.28-0.757 0.51-0.921 0.23-0.164 0.443-0.261 0.641-0.292 0.198-0.031 0.418-0.023 0.663 0.023v0c0.459-0.031 0.842 0.169 1.149 0.6v0l9.765 13.712c0.307 0.432 0.393 0.86 0.258 1.286-0.134 0.417-0.372 0.747-0.714 0.99v0c-0.347 0.247-0.726 0.357-1.136 0.327-0.413-0.035-0.774-0.268-1.081-0.699z" fill="white"></path><path d="M238.633 212.982v0c-1.848 2.45-1.977 4.231-0.387 5.345v0c0.989 0.746 2.199 0.552 3.632-0.582v0c0.498-0.374 1.012-0.792 1.542-1.255 0.524-0.466 1.108-0.966 1.75-1.497 0.648-0.528 1.354-1.034 2.116-1.52v0c1.001-0.744 2.031-1.127 3.09-1.146 1.053-0.024 2.043 0.314 2.971 1.013v0c1.692 1.276 2.459 2.984 2.301 5.124v0c-0.132 1.934-0.956 3.877-2.471 5.828v0c-1.102 1.461-2.439 2.707-4.009 3.737v0c-0.648 0.39-1.257 0.638-1.827 0.742-0.56 0.103-0.981 0.049-1.261-0.163-0.286-0.216-0.442-0.476-0.471-0.781-0.033-0.31 0.045-0.591 0.236-0.844 0.195-0.258 0.483-0.497 0.865-0.718 0.387-0.216 0.857-0.513 1.408-0.889v0c1.456-0.936 2.48-1.796 3.073-2.582 0.597-0.791 1.026-1.463 1.288-2.015 0.262-0.552 0.429-1.111 0.502-1.676v0c0.078-1.269-0.336-2.245-1.242-2.929v0c-0.648-0.489-1.301-0.663-1.959-0.522-0.662 0.147-1.331 0.461-2.005 0.944-0.678 0.488-1.318 0.988-1.92 1.499-0.611 0.513-1.219 1.028-1.825 1.545-0.611 0.513-1.227 0.975-1.848 1.386-0.625 0.417-1.254 0.696-1.887 0.838v0c-1.402 0.442-2.721 0.196-3.957-0.736v0c-1.576-1.189-2.219-2.713-1.929-4.571v0c0.153-1.608 0.91-3.313 2.269-5.115v0c1.38-1.829 2.754-3.09 4.121-3.782v0c1.182-0.573 2.07-0.636 2.664-0.188v0c0.225 0.17 0.336 0.4 0.332 0.69 0.006 0.289-0.076 0.546-0.246 0.772v0c-0.319 0.423-0.629 0.685-0.929 0.785-0.299 0.111-0.615 0.238-0.949 0.384-0.333 0.145-0.656 0.367-0.968 0.666v0c-0.639 0.492-1.329 1.23-2.07 2.213z" fill="white"></path><path d="M274.331 177.414v0c1.007 0.33 1.121 1.685 0.341 4.065v0c-0.583 1.778-1.481 2.874-2.695 3.288v0c-1.303 0.464-3.156 0.342-5.56-0.367v0l-10.563-3.46-0.723 2.207c-0.133 0.405-0.362 0.685-0.688 0.839-0.332 0.152-0.632 0.184-0.9 0.096v0c-0.268-0.088-0.503-0.277-0.705-0.568-0.202-0.291-0.225-0.671-0.071-1.142v0l0.79-2.413-5.369-1.976c-0.375-0.203-0.622-0.49-0.739-0.861-0.124-0.374-0.131-0.727-0.021-1.061 0.109-0.333 0.304-0.585 0.583-0.753 0.28-0.169 0.635-0.183 1.067-0.042v0l5.434 1.78 1.137-3.472c0.133-0.405 0.369-0.672 0.708-0.8 0.339-0.128 0.642-0.148 0.91-0.06v0c0.34 0.111 0.583 0.31 0.728 0.597 0.145 0.286 0.151 0.632 0.018 1.038v0l-1.138 3.472 8.906 2.917c2.478 0.812 4.007 1.218 4.585 1.22 0.572-0.001 1.02-0.151 1.343-0.451 0.323-0.3 0.572-0.718 0.747-1.253v0l0.496-2.01c0.122-0.373 0.334-0.622 0.635-0.748 0.293-0.121 0.541-0.149 0.744-0.082z" fill="white"></path></g></svg></g></svg></g></svg></g><g></g></svg></g><defs><mask></mask></defs></svg><rect width="280" height="280" fill="black" stroke="none" visibility="hidden"></rect></g></mask><linearGradient x1="0" x2="1" y1="0.548" y2="0.55" id="78473dc1-c7ad-4a1a-9dd4-a8d7ea80cee7"><stop stop-color="#ff6cab" offset="0"></stop><stop stop-color="#7366ff" offset="1"></stop></linearGradient><rect width="280" height="280" fill="url(#78473dc1-c7ad-4a1a-9dd4-a8d7ea80cee7)" mask="url(#092cbbbe-9a9a-4981-a814-dd858d3a4390)" data-fill-palette-color="primary"></rect><mask id="769f824c-c14d-4730-a555-bd8a852e0672"><g id="SvgjsG3438"><svg viewBox="0 0 280 280" height="280" width="280"><g><svg viewBox="0 0 280 280" height="280" width="280"><g><svg viewBox="0 0 280 280" height="280" width="280"><g id="SvgjsG3437"><svg viewBox="0 0 280 280" height="280" width="280" id="SvgjsSvg3436"><g><svg viewBox="0 0 280 280" height="280" width="280"><g transform="matrix(1,0,0,1,57.50420886156945,57.50420886156945)"><svg viewBox="0 0 164.9915822768611 164.9915822768611" height="164.9915822768611" width="164.9915822768611"><g id="SvgjsG3435"><circle r="82" cx="82.49579113843055" cy="82.49579113843055" fill="white"></circle><svg xmlns="http://www.w3.org/2000/svg" xmlns:xlink="http://www.w3.org/1999/xlink" version="1.1" x="24.74873734152917" y="24.748737341529164" viewBox="7.5 8.146 85 85" enable-background="new 0 0 100 100" xml:space="preserve" height="115.49410759380275" width="115.49410759380275" class="icon-xg-0" data-fill-palette-color="quaternary" id="SvgjsSvg3434"><circle cx="49.97" cy="10.646" r="2.5" fill="black"></circle><path d="M25 16.265c-1.11 0.82-1.36 2.38-0.55 3.5 0.489 0.67 1.25 1.03 2.029 1.03 0.511 0 1.021-0.16 1.471-0.48 1.109-0.82 1.359-2.38 0.54-3.5C27.68 15.706 26.12 15.456 25 16.265z" fill="black"></path><path d="M62.33 15.085c1.05 0 2.04-0.67 2.38-1.73 0.43-1.32-0.3-2.73-1.61-3.15-1.31-0.43-2.72 0.29-3.149 1.61-0.42 1.31 0.3 2.72 1.609 3.15C61.81 15.045 62.069 15.085 62.33 15.085z" fill="black"></path><path d="M37.609 15.095c0.261 0 0.521-0.04 0.78-0.12 1.311-0.43 2.03-1.84 1.601-3.15-0.431-1.31-1.841-2.03-3.15-1.6-1.31 0.42-2.03 1.83-1.6 3.15C35.58 14.425 36.56 15.095 37.609 15.095z" fill="black"></path><path d="M16.16 29.155c0.439 0.33 0.96 0.48 1.47 0.48 0.77 0 1.53-0.35 2.02-1.02 0.82-1.12 0.57-2.69-0.55-3.5s-2.68-0.56-3.49 0.55C14.8 26.785 15.04 28.345 16.16 29.155z" fill="black"></path><path d="M12.72 35.905c-1.31-0.42-2.72 0.29-3.15 1.61-0.43 1.31 0.29 2.72 1.601 3.15 0.26 0.08 0.52 0.12 0.78 0.12 1.05 0 2.029-0.67 2.38-1.73h-0.011C14.75 37.745 14.03 36.335 12.72 35.905z" fill="black"></path><path d="M74.95 16.235c-1.12-0.81-2.681-0.56-3.49 0.55-0.811 1.12-0.57 2.68 0.55 3.5v-0.01c0.44 0.33 0.96 0.48 1.47 0.48 0.771 0 1.53-0.36 2.021-1.03C76.31 18.605 76.06 17.045 74.95 16.235z" fill="black"></path><path d="M88.03 40.725c0.26 0 0.52-0.04 0.779-0.12 1.311-0.43 2.03-1.84 1.601-3.16-0.431-1.31-1.841-2.03-3.15-1.6-1.31 0.43-2.03 1.84-1.6 3.15C86 40.055 86.979 40.725 88.03 40.725z" fill="black"></path><path d="M80.859 25.075c-1.119 0.81-1.359 2.38-0.55 3.49 0.49 0.67 1.25 1.03 2.03 1.03 0.51 0 1.02-0.16 1.47-0.48 1.11-0.81 1.36-2.38 0.54-3.49 0-0.01 0-0.01 0-0.01C83.54 24.505 81.979 24.265 80.859 25.075z" fill="black"></path><path d="M92.5 50.646c0-0.66-0.271-1.3-0.73-1.77-0.93-0.93-2.609-0.93-3.54 0-0.46 0.47-0.729 1.11-0.729 1.77 0 0.66 0.27 1.3 0.729 1.77 0.471 0.46 1.11 0.73 1.771 0.73s1.3-0.27 1.77-0.73C92.229 51.945 92.5 51.305 92.5 50.646z" fill="black"></path><path d="M72.05 80.975c-1.11 0.82-1.36 2.38-0.55 3.5 0.49 0.67 1.25 1.02 2.03 1.02 0.51 0 1.02-0.15 1.47-0.47 1.109-0.82 1.359-2.38 0.55-3.5C74.729 80.416 73.17 80.166 72.05 80.975z" fill="black"></path><path d="M90.43 63.775c0.43-1.31-0.29-2.72-1.61-3.14-1.31-0.43-2.72 0.29-3.14 1.6-0.43 1.31 0.29 2.72 1.601 3.15 0.26 0.08 0.52 0.12 0.77 0.12C89.109 65.505 90.09 64.835 90.43 63.775z" fill="black"></path><path d="M19.14 76.215c1.11-0.81 1.36-2.38 0.54-3.49-0.81-1.12-2.37-1.36-3.49-0.55-1.12 0.82-1.359 2.38-0.54 3.49 0 0.01 0 0.01 0 0.01 0.48 0.67 1.25 1.02 2.021 1.02C18.18 76.695 18.689 76.545 19.14 76.215z" fill="black"></path><path d="M62.39 91.195c0.25 0 0.51-0.04 0.771-0.13 1.31-0.42 2.029-1.83 1.6-3.15-0.42-1.31-1.84-2.03-3.15-1.6-1.31 0.42-2.029 1.84-1.6 3.15C60.35 90.525 61.33 91.195 62.39 91.195z" fill="black"></path><path d="M80.899 76.175c0.44 0.32 0.96 0.48 1.471 0.48 0.77 0 1.529-0.36 2.02-1.03 0.811-1.12 0.561-2.68-0.55-3.5-1.12-0.81-2.68-0.56-3.49 0.56C79.53 73.795 79.78 75.365 80.899 76.175z" fill="black"></path><path d="M11.96 65.565c0.26 0 0.52-0.04 0.78-0.12 1.31-0.43 2.029-1.84 1.6-3.15v-0.01c-0.43-1.31-1.84-2.02-3.15-1.6-1.31 0.43-2.029 1.84-1.6 3.16C9.93 64.896 10.91 65.565 11.96 65.565z" fill="black"></path><path d="M24.5 81.565c-0.811 1.12-0.57 2.68 0.55 3.49 0.44 0.32 0.96 0.48 1.47 0.48 0.771 0 1.53-0.36 2.021-1.04 0.81-1.11 0.56-2.68-0.55-3.49C26.87 80.195 25.31 80.445 24.5 81.565z" fill="black"></path><path d="M36.899 91.085c0.25 0.08 0.511 0.12 0.771 0.12 1.06 0 2.03-0.67 2.38-1.73 0.42-1.31-0.3-2.72-1.61-3.15-1.319-0.42-2.729 0.3-3.149 1.61C34.859 89.255 35.58 90.666 36.899 91.085z" fill="black"></path><circle cx="50.03" cy="90.646" r="2.5" fill="black"></circle><path d="M7.5 50.646c0 0.66 0.27 1.3 0.729 1.77 0.471 0.46 1.11 0.73 1.771 0.73s1.3-0.27 1.77-0.73c0.46-0.47 0.73-1.11 0.73-1.77 0-0.66-0.271-1.3-0.73-1.77-0.93-0.93-2.6-0.93-3.54 0C7.77 49.345 7.5 49.985 7.5 50.646z" fill="black"></path></svg></g></svg></g><g id="SvgjsG3433"></g><g id="SvgjsG3432"></g></svg></g></svg></g></svg></g><g></g></svg></g><defs><mask></mask></defs><mask><g id="SvgjsG3431"><svg viewBox="0 0 280 280" height="280" width="280"><g><svg viewBox="0 0 280 280" height="280" width="280"><g><svg viewBox="0 0 280 280" height="280" width="280"><g id="SvgjsG3430"><svg viewBox="0 0 280 280" height="280" width="280" id="SvgjsSvg3429"><g><svg viewBox="0 0 280 280" height="280" width="280"><g transform="matrix(1,0,0,1,57.50420886156945,57.50420886156945)"><svg viewBox="0 0 164.9915822768611 164.9915822768611" height="164.9915822768611" width="164.9915822768611"><g id="SvgjsG3428"><circle r="82" cx="82.49579113843055" cy="82.49579113843055" fill="black"></circle><svg xmlns="http://www.w3.org/2000/svg" xmlns:xlink="http://www.w3.org/1999/xlink" version="1.1" x="24.74873734152917" y="24.748737341529164" viewBox="7.5 8.146 85 85" enable-background="new 0 0 100 100" xml:space="preserve" height="115.49410759380275" width="115.49410759380275" class="icon-xg-0" data-fill-palette-color="quaternary" id="SvgjsSvg3427"><circle cx="49.97" cy="10.646" r="2.5" fill="black"></circle><path d="M25 16.265c-1.11 0.82-1.36 2.38-0.55 3.5 0.489 0.67 1.25 1.03 2.029 1.03 0.511 0 1.021-0.16 1.471-0.48 1.109-0.82 1.359-2.38 0.54-3.5C27.68 15.706 26.12 15.456 25 16.265z" fill="black"></path><path d="M62.33 15.085c1.05 0 2.04-0.67 2.38-1.73 0.43-1.32-0.3-2.73-1.61-3.15-1.31-0.43-2.72 0.29-3.149 1.61-0.42 1.31 0.3 2.72 1.609 3.15C61.81 15.045 62.069 15.085 62.33 15.085z" fill="black"></path><path d="M37.609 15.095c0.261 0 0.521-0.04 0.78-0.12 1.311-0.43 2.03-1.84 1.601-3.15-0.431-1.31-1.841-2.03-3.15-1.6-1.31 0.42-2.03 1.83-1.6 3.15C35.58 14.425 36.56 15.095 37.609 15.095z" fill="black"></path><path d="M16.16 29.155c0.439 0.33 0.96 0.48 1.47 0.48 0.77 0 1.53-0.35 2.02-1.02 0.82-1.12 0.57-2.69-0.55-3.5s-2.68-0.56-3.49 0.55C14.8 26.785 15.04 28.345 16.16 29.155z" fill="black"></path><path d="M12.72 35.905c-1.31-0.42-2.72 0.29-3.15 1.61-0.43 1.31 0.29 2.72 1.601 3.15 0.26 0.08 0.52 0.12 0.78 0.12 1.05 0 2.029-0.67 2.38-1.73h-0.011C14.75 37.745 14.03 36.335 12.72 35.905z" fill="black"></path><path d="M74.95 16.235c-1.12-0.81-2.681-0.56-3.49 0.55-0.811 1.12-0.57 2.68 0.55 3.5v-0.01c0.44 0.33 0.96 0.48 1.47 0.48 0.771 0 1.53-0.36 2.021-1.03C76.31 18.605 76.06 17.045 74.95 16.235z" fill="black"></path><path d="M88.03 40.725c0.26 0 0.52-0.04 0.779-0.12 1.311-0.43 2.03-1.84 1.601-3.16-0.431-1.31-1.841-2.03-3.15-1.6-1.31 0.43-2.03 1.84-1.6 3.15C86 40.055 86.979 40.725 88.03 40.725z" fill="black"></path><path d="M80.859 25.075c-1.119 0.81-1.359 2.38-0.55 3.49 0.49 0.67 1.25 1.03 2.03 1.03 0.51 0 1.02-0.16 1.47-0.48 1.11-0.81 1.36-2.38 0.54-3.49 0-0.01 0-0.01 0-0.01C83.54 24.505 81.979 24.265 80.859 25.075z" fill="black"></path><path d="M92.5 50.646c0-0.66-0.271-1.3-0.73-1.77-0.93-0.93-2.609-0.93-3.54 0-0.46 0.47-0.729 1.11-0.729 1.77 0 0.66 0.27 1.3 0.729 1.77 0.471 0.46 1.11 0.73 1.771 0.73s1.3-0.27 1.77-0.73C92.229 51.945 92.5 51.305 92.5 50.646z" fill="black"></path><path d="M72.05 80.975c-1.11 0.82-1.36 2.38-0.55 3.5 0.49 0.67 1.25 1.02 2.03 1.02 0.51 0 1.02-0.15 1.47-0.47 1.109-0.82 1.359-2.38 0.55-3.5C74.729 80.416 73.17 80.166 72.05 80.975z" fill="black"></path><path d="M90.43 63.775c0.43-1.31-0.29-2.72-1.61-3.14-1.31-0.43-2.72 0.29-3.14 1.6-0.43 1.31 0.29 2.72 1.601 3.15 0.26 0.08 0.52 0.12 0.77 0.12C89.109 65.505 90.09 64.835 90.43 63.775z" fill="black"></path><path d="M19.14 76.215c1.11-0.81 1.36-2.38 0.54-3.49-0.81-1.12-2.37-1.36-3.49-0.55-1.12 0.82-1.359 2.38-0.54 3.49 0 0.01 0 0.01 0 0.01 0.48 0.67 1.25 1.02 2.021 1.02C18.18 76.695 18.689 76.545 19.14 76.215z" fill="black"></path><path d="M62.39 91.195c0.25 0 0.51-0.04 0.771-0.13 1.31-0.42 2.029-1.83 1.6-3.15-0.42-1.31-1.84-2.03-3.15-1.6-1.31 0.42-2.029 1.84-1.6 3.15C60.35 90.525 61.33 91.195 62.39 91.195z" fill="black"></path><path d="M80.899 76.175c0.44 0.32 0.96 0.48 1.471 0.48 0.77 0 1.529-0.36 2.02-1.03 0.811-1.12 0.561-2.68-0.55-3.5-1.12-0.81-2.68-0.56-3.49 0.56C79.53 73.795 79.78 75.365 80.899 76.175z" fill="black"></path><path d="M11.96 65.565c0.26 0 0.52-0.04 0.78-0.12 1.31-0.43 2.029-1.84 1.6-3.15v-0.01c-0.43-1.31-1.84-2.02-3.15-1.6-1.31 0.43-2.029 1.84-1.6 3.16C9.93 64.896 10.91 65.565 11.96 65.565z" fill="black"></path><path d="M24.5 81.565c-0.811 1.12-0.57 2.68 0.55 3.49 0.44 0.32 0.96 0.48 1.47 0.48 0.771 0 1.53-0.36 2.021-1.04 0.81-1.11 0.56-2.68-0.55-3.49C26.87 80.195 25.31 80.445 24.5 81.565z" fill="black"></path><path d="M36.899 91.085c0.25 0.08 0.511 0.12 0.771 0.12 1.06 0 2.03-0.67 2.38-1.73 0.42-1.31-0.3-2.72-1.61-3.15-1.319-0.42-2.729 0.3-3.149 1.61C34.859 89.255 35.58 90.666 36.899 91.085z" fill="black"></path><circle cx="50.03" cy="90.646" r="2.5" fill="black"></circle><path d="M7.5 50.646c0 0.66 0.27 1.3 0.729 1.77 0.471 0.46 1.11 0.73 1.771 0.73s1.3-0.27 1.77-0.73c0.46-0.47 0.73-1.11 0.73-1.77 0-0.66-0.271-1.3-0.73-1.77-0.93-0.93-2.6-0.93-3.54 0C7.77 49.345 7.5 49.985 7.5 50.646z" fill="black"></path></svg></g></svg></g><g id="SvgjsG3426"><path d="M26.988 96.154v0c1.01 0.319 1.138 1.673 0.384 4.061v0c-0.564 1.785-1.451 2.89-2.66 3.316v0c-1.298 0.477-3.153 0.375-5.564-0.307v0l-10.599-3.349-0.699 2.215c-0.129 0.407-0.355 0.689-0.679 0.846-0.33 0.155-0.63 0.191-0.899 0.105v0c-0.269-0.085-0.506-0.272-0.711-0.56-0.205-0.288-0.232-0.669-0.083-1.141v0l0.765-2.421-5.39-1.919c-0.377-0.199-0.627-0.483-0.748-0.853-0.128-0.372-0.139-0.726-0.033-1.061 0.106-0.335 0.298-0.588 0.575-0.759 0.278-0.172 0.634-0.19 1.067-0.053v0l5.452 1.722 1.101-3.483c0.129-0.407 0.361-0.676 0.699-0.808 0.337-0.132 0.641-0.155 0.909-0.07v0c0.341 0.108 0.586 0.304 0.734 0.589 0.148 0.285 0.158 0.631 0.029 1.038v0l-1.1 3.484 8.936 2.823c2.487 0.786 4.019 1.176 4.598 1.171 0.572-0.007 1.018-0.162 1.337-0.465 0.319-0.303 0.564-0.724 0.734-1.262v0l0.475-2.015c0.118-0.374 0.327-0.625 0.627-0.754 0.292-0.124 0.539-0.154 0.743-0.09z" fill="black"></path><path d="M30.433 70.133v0c-1.03-0.748-1.938-1.658-2.724-2.73-0.792-1.076-1.354-2.258-1.686-3.546v0c-0.704-2.696-0.104-5.356 1.8-7.978 1.908-2.628 4.253-4.025 7.034-4.191v0c2.633-0.137 5.064 0.602 7.291 2.22v0c2.255 1.637 3.708 3.717 4.36 6.239v0c0.732 2.716 0.144 5.389-1.764 8.016-1.904 2.623-4.261 4.007-7.07 4.153v0c-2.572 0.182-4.986-0.546-7.241-2.183zM32.458 67.343v0c0.685 0.497 1.478 0.933 2.38 1.307 0.907 0.378 1.865 0.563 2.874 0.556v0c2.105 0.04 3.778-0.794 5.019-2.504v0c1.31-1.804 1.587-3.656 0.832-5.556v0c-0.716-1.778-1.873-3.247-3.47-4.407v0c-1.659-1.205-3.387-1.829-5.182-1.874v0c-2.098-0.12-3.79 0.705-5.075 2.476v0c-1.241 1.709-1.5 3.571-0.776 5.583v0c0.551 1.701 1.684 3.174 3.398 4.419z" fill="black"></path><path d="M80.295 33.999l-1.015-1.544c-0.096 3.06-1.413 5.424-3.948 7.091v0c-2.3 1.512-4.701 1.78-7.202 0.805v0c-2.206-0.913-4.083-2.549-5.633-4.906v0c-2.6-3.956-3.03-7.473-1.29-10.551v0c0.553-1.088 1.278-1.927 2.175-2.516 0.897-0.59 1.676-1.027 2.336-1.313 0.66-0.286 1.353-0.453 2.079-0.502v0c1.488-0.179 2.844 0.024 4.069 0.611v0l-5.753-8.754c-0.291-0.443-0.349-0.857-0.175-1.244 0.165-0.388 0.423-0.698 0.773-0.928v0c0.356-0.234 0.731-0.341 1.124-0.319 0.389 0.016 0.729 0.245 1.02 0.688v0l14.183 21.58c0.272 0.414 0.33 0.821 0.172 1.22-0.157 0.4-0.354 0.677-0.59 0.832-0.236 0.155-0.452 0.264-0.649 0.328-0.187 0.066-0.402 0.071-0.644 0.016v0c-0.435-0.011-0.779-0.208-1.032-0.594zM74.492 37.121v0c3.599-2.366 3.878-5.863 0.836-10.491v0c-1.957-2.978-4.136-4.333-6.537-4.065v0c-0.913 0.089-1.841 0.444-2.784 1.064-0.943 0.62-1.602 1.321-1.977 2.102-0.373 0.772-0.565 1.602-0.575 2.489v0c0.02 1.634 0.612 3.336 1.776 5.107v0c1.723 2.622 3.611 4.148 5.663 4.578v0c1.191 0.271 2.39 0.01 3.598-0.784z" fill="black"></path><path d="M104.789 14.645v0c-0.268-1.244-0.337-2.528-0.207-3.851 0.129-1.33 0.499-2.585 1.111-3.765v0c1.275-2.478 3.497-4.058 6.665-4.74 3.175-0.684 5.853-0.159 8.035 1.574v0c2.053 1.655 3.369 3.828 3.948 6.519v0c0.587 2.724 0.281 5.243-0.917 7.556v0c-1.268 2.511-3.489 4.109-6.664 4.792-3.168 0.682-5.847 0.14-8.036-1.627v0c-2.037-1.581-3.348-3.734-3.935-6.458zM108.159 13.919v0c0.178 0.827 0.478 1.681 0.9 2.562 0.423 0.887 1.013 1.665 1.769 2.332v0c1.541 1.435 3.344 1.93 5.408 1.486v0c2.179-0.469 3.622-1.663 4.328-3.582v0c0.654-1.802 0.773-3.668 0.357-5.599v0c-0.432-2.004-1.301-3.623-2.608-4.854v0c-1.482-1.49-3.293-2.004-5.431-1.544v0c-2.065 0.445-3.5 1.658-4.305 3.641v0c-0.725 1.634-0.864 3.487-0.418 5.558z" fill="black"></path><path d="M183.955 26.191l8.928-24.01c0.197-0.529 0.503-0.848 0.918-0.958 0.415-0.11 0.755-0.116 1.019-0.017 0.264 0.098 0.474 0.195 0.631 0.289 0.153 0.101 0.281 0.262 0.381 0.483v0c0.281 0.369 0.324 0.818 0.127 1.347v0l-8.927 24.01c-0.185 0.497-0.491 0.808-0.921 0.935-0.42 0.123-0.827 0.111-1.22-0.035v0c-0.4-0.149-0.703-0.401-0.908-0.756-0.203-0.362-0.212-0.791-0.028-1.288z" fill="black"></path><path d="M229.37 22.585v0c-0.327 0.46-0.752 0.723-1.273 0.792-0.523 0.058-1.07-0.116-1.642-0.524-0.577-0.411-0.921-0.871-1.031-1.38-0.112-0.519-0.004-1.008 0.323-1.468v0c0.283-0.398 0.689-0.629 1.216-0.693 0.517-0.062 1.07 0.116 1.658 0.535 0.588 0.419 0.932 0.879 1.032 1.381 0.095 0.507 0.001 0.959-0.283 1.357zM211.468 41.158l9.765-13.712c0.307-0.432 0.69-0.666 1.147-0.703 0.461-0.043 0.807 0.017 1.037 0.181 0.23 0.164 0.392 0.334 0.485 0.51 0.094 0.177 0.159 0.388 0.196 0.633v0c0.18 0.424 0.116 0.851-0.192 1.283v0l-9.765 13.712c-0.307 0.432-0.685 0.653-1.131 0.663-0.438 0.009-0.827-0.108-1.169-0.351v0c-0.347-0.247-0.574-0.569-0.681-0.966-0.102-0.402 0-0.819 0.308-1.25z" fill="black"></path><path d="M251.314 58.268v0c-1.848-2.45-3.526-3.063-5.034-1.839v0c-0.989 0.746-1.134 1.964-0.437 3.653v0c0.223 0.581 0.484 1.19 0.784 1.827 0.305 0.632 0.625 1.33 0.959 2.094 0.33 0.768 0.623 1.586 0.881 2.452v0c0.441 1.167 0.526 2.262 0.255 3.285-0.265 1.019-0.862 1.879-1.79 2.58v0c-1.692 1.276-3.544 1.545-5.559 0.806v0c-1.824-0.658-3.466-1.983-4.926-3.975v0c-1.102-1.461-1.934-3.088-2.494-4.881v0c-0.198-0.73-0.268-1.384-0.212-1.96 0.055-0.567 0.222-0.956 0.503-1.168 0.286-0.216 0.579-0.295 0.88-0.238 0.307 0.053 0.556 0.205 0.747 0.458 0.195 0.258 0.346 0.601 0.453 1.029 0.102 0.432 0.258 0.965 0.469 1.598v0c0.5 1.657 1.047 2.878 1.639 3.664 0.597 0.791 1.125 1.388 1.585 1.791 0.459 0.403 0.951 0.718 1.474 0.943v0c1.198 0.423 2.251 0.293 3.157-0.391v0c0.648-0.489 0.995-1.069 1.039-1.741 0.041-0.677-0.078-1.406-0.357-2.187-0.283-0.786-0.588-1.539-0.915-2.258-0.326-0.728-0.654-1.455-0.984-2.179-0.326-0.728-0.601-1.447-0.826-2.156-0.229-0.715-0.325-1.396-0.289-2.045v0c-0.04-1.47 0.558-2.671 1.793-3.603v0c1.576-1.189 3.218-1.39 4.926-0.601v0c1.504 0.589 2.936 1.784 4.296 3.585v0c1.38 1.829 2.215 3.496 2.506 5.001v0c0.227 1.294 0.043 2.165-0.55 2.612v0c-0.225 0.17-0.477 0.213-0.755 0.131-0.28-0.073-0.504-0.223-0.674-0.448v0c-0.319-0.423-0.486-0.793-0.501-1.109-0.024-0.318-0.06-0.657-0.108-1.018-0.048-0.36-0.173-0.732-0.375-1.113v0c-0.298-0.749-0.818-1.615-1.56-2.599z" fill="black"></path><path d="M257.435 108.94v0c-1.007 0.33-1.9-0.695-2.68-3.075v0c-0.583-1.778-0.507-3.193 0.228-4.245v0c0.776-1.145 2.342-2.143 4.698-2.995v0l10.564-3.46-0.723-2.207c-0.133-0.405-0.114-0.766 0.057-1.083 0.178-0.319 0.401-0.522 0.669-0.61v0c0.268-0.088 0.569-0.074 0.904 0.04 0.334 0.115 0.579 0.408 0.733 0.879v0l0.791 2.412 5.498-1.584c0.422-0.059 0.791 0.027 1.105 0.257 0.321 0.228 0.536 0.509 0.645 0.842 0.109 0.333 0.101 0.651-0.025 0.953-0.126 0.302-0.404 0.523-0.835 0.665v0l-5.434 1.78 1.138 3.472c0.133 0.405 0.101 0.76-0.097 1.064-0.197 0.304-0.43 0.499-0.699 0.587v0c-0.34 0.111-0.653 0.095-0.939-0.051-0.286-0.145-0.496-0.42-0.629-0.825v0l-1.138-3.472-8.905 2.917c-2.478 0.812-3.951 1.389-4.418 1.73-0.461 0.339-0.733 0.725-0.816 1.158-0.083 0.433-0.036 0.917 0.14 1.453v0l0.789 1.913c0.122 0.373 0.099 0.699-0.07 0.979-0.165 0.271-0.348 0.44-0.551 0.506z" fill="black"></path><path d="M6.801 140.41c0-1.829 1.483-3.312 3.312-3.312 1.829 0 3.312 1.483 3.311 3.312 0 1.829-1.483 3.312-3.311 3.311-1.829 0-3.312-1.483-3.312-3.311z" fill="black"></path><path d="M266.89 140.41c0-1.829 1.483-3.312 3.312-3.312 1.829 0 3.312 1.483 3.311 3.312 0 1.829-1.483 3.312-3.311 3.311-1.829 0-3.312-1.483-3.312-3.311z" fill="black"></path></g><g id="SvgjsG3425"><path d="M10.034 190.021v0c-1.01 0.319-1.893-0.715-2.647-3.103v0c-0.564-1.785-0.473-3.199 0.273-4.243v0c0.788-1.137 2.365-2.118 4.73-2.945v0l10.599-3.348-0.699-2.215c-0.129-0.407-0.105-0.768 0.069-1.082 0.181-0.317 0.406-0.518 0.675-0.603v0c0.269-0.085 0.57-0.068 0.904 0.05 0.333 0.118 0.575 0.414 0.723 0.886v0l0.765 2.421 5.514-1.525c0.423-0.054 0.79 0.035 1.103 0.268 0.318 0.231 0.53 0.514 0.636 0.849 0.106 0.335 0.094 0.652-0.035 0.953-0.129 0.3-0.41 0.519-0.842 0.656v0l-5.452 1.722 1.1 3.484c0.129 0.407 0.092 0.761-0.108 1.062-0.201 0.301-0.435 0.495-0.704 0.58v0c-0.341 0.108-0.654 0.088-0.939-0.06-0.285-0.148-0.492-0.426-0.621-0.833v0l-1.1-3.484-8.936 2.823c-2.487 0.786-3.965 1.347-4.436 1.683-0.464 0.334-0.74 0.717-0.828 1.149-0.087 0.432-0.046 0.916 0.124 1.455v0l0.769 1.922c0.118 0.374 0.091 0.7-0.08 0.978-0.167 0.269-0.353 0.436-0.557 0.5z" fill="black"></path><path d="M30.344 210.751v0c1.03-0.748 2.177-1.329 3.439-1.744 1.269-0.419 2.566-0.588 3.893-0.505v0c2.782 0.166 5.124 1.56 7.028 4.182 1.908 2.628 2.51 5.29 1.806 7.987v0c-0.685 2.546-2.141 4.628-4.368 6.245v0c-2.255 1.637-4.683 2.375-7.283 2.213v0c-2.809-0.146-5.168-1.532-7.076-4.161-1.904-2.623-2.49-5.292-1.758-8.008v0c0.624-2.502 2.063-4.572 4.319-6.209zM32.369 213.541v0c-0.685 0.497-1.345 1.117-1.98 1.858-0.641 0.746-1.114 1.599-1.419 2.561v0c-0.69 1.989-0.415 3.838 0.826 5.547v0c1.31 1.804 2.985 2.641 5.025 2.512v0c1.912-0.13 3.667-0.775 5.266-1.935v0c1.659-1.205 2.788-2.653 3.387-4.346v0c0.764-1.958 0.503-3.822-0.782-5.592v0c-1.241-1.709-2.931-2.532-5.069-2.468v0c-1.788-0.003-3.539 0.618-5.254 1.863z" fill="black"></path><path d="M70.881 261.144l1.015-1.544c-2.847 1.126-5.539 0.855-8.075-0.812v0c-2.3-1.512-3.499-3.609-3.597-6.291v0c-0.037-2.387 0.72-4.759 2.269-7.117v0c2.6-3.956 5.658-5.746 9.174-5.37v0c1.218 0.076 2.276 0.409 3.172 0.998 0.897 0.59 1.608 1.131 2.132 1.623 0.524 0.493 0.953 1.062 1.285 1.71v0c0.755 1.295 1.106 2.621 1.054 3.977v0l5.753-8.754c0.291-0.443 0.648-0.661 1.072-0.654 0.422-0.003 0.808 0.111 1.159 0.342v0c0.356 0.234 0.603 0.536 0.739 0.905 0.14 0.364 0.064 0.767-0.227 1.209v0l-14.182 21.58c-0.272 0.414-0.623 0.628-1.052 0.642-0.429 0.014-0.762-0.056-0.997-0.211-0.236-0.155-0.422-0.31-0.559-0.465-0.135-0.146-0.225-0.341-0.27-0.585v0c-0.163-0.404-0.118-0.798 0.135-1.183zM65.713 257.056v0c3.599 2.366 6.92 1.234 9.963-3.395v0c1.957-2.978 2.337-5.516 1.137-7.613v0c-0.444-0.802-1.138-1.513-2.08-2.134-0.943-0.62-1.848-0.947-2.715-0.981-0.857-0.036-1.695 0.117-2.513 0.46v0c-1.492 0.666-2.82 1.885-3.983 3.656v0c-1.723 2.622-2.375 4.96-1.955 7.015v0c0.224 1.201 0.939 2.198 2.146 2.992z" fill="black"></path><path d="M104.765 266.282v0c0.268-1.244 0.734-2.443 1.397-3.595 0.665-1.159 1.519-2.15 2.562-2.974v0c2.182-1.733 4.857-2.258 8.026-1.576 3.175 0.684 5.4 2.264 6.675 4.742v0c1.189 2.354 1.494 4.876 0.915 7.566v0c-0.587 2.724-1.902 4.894-3.946 6.508v0c-2.189 1.767-4.871 2.308-8.046 1.625-3.168-0.682-5.386-2.279-6.655-4.79v0c-1.205-2.28-1.515-4.781-0.928-7.506zM108.135 267.008v0c-0.178 0.827-0.256 1.729-0.234 2.705 0.021 0.983 0.238 1.934 0.653 2.854v0c0.814 1.942 2.253 3.135 4.317 3.579v0c2.179 0.469 3.986-0.025 5.419-1.483v0c1.337-1.373 2.214-3.025 2.629-4.955v0c0.432-2.004 0.305-3.837-0.378-5.497v0c-0.738-1.968-2.176-3.182-4.315-3.643v0c-2.065-0.445-3.872 0.071-5.421 1.546v0c-1.333 1.191-2.223 2.822-2.67 4.894z" fill="black"></path><path d="M189.857 270.5l-8.928-24.01c-0.197-0.529-0.174-0.97 0.069-1.325 0.243-0.354 0.496-0.581 0.761-0.679 0.264-0.098 0.486-0.163 0.666-0.193 0.182-0.024 0.384 0.015 0.605 0.116v0c0.454 0.095 0.779 0.408 0.975 0.937v0l8.928 24.01c0.185 0.497 0.156 0.933-0.086 1.309-0.238 0.367-0.553 0.624-0.946 0.771v0c-0.4 0.149-0.794 0.156-1.182 0.021-0.39-0.141-0.678-0.46-0.862-0.957z" fill="black"></path><path d="M209.593 230.464v0c0.327 0.46 0.438 0.947 0.332 1.462-0.116 0.513-0.46 0.974-1.032 1.38-0.577 0.411-1.125 0.586-1.642 0.524-0.527-0.064-0.954-0.326-1.281-0.786v0c-0.283-0.398-0.369-0.856-0.258-1.375 0.11-0.509 0.46-0.974 1.049-1.393 0.588-0.419 1.136-0.594 1.642-0.523 0.51 0.076 0.907 0.313 1.19 0.711zM221.291 253.455l-9.765-13.712c-0.307-0.432-0.404-0.87-0.29-1.314 0.11-0.45 0.28-0.757 0.51-0.921 0.23-0.164 0.443-0.261 0.641-0.292 0.198-0.031 0.418-0.023 0.663 0.023v0c0.459-0.031 0.842 0.169 1.149 0.6v0l9.765 13.712c0.307 0.432 0.393 0.86 0.258 1.286-0.134 0.417-0.372 0.747-0.714 0.99v0c-0.347 0.247-0.726 0.357-1.136 0.327-0.413-0.035-0.774-0.268-1.081-0.699z" fill="black"></path><path d="M238.633 212.982v0c-1.848 2.45-1.977 4.231-0.387 5.345v0c0.989 0.746 2.199 0.552 3.632-0.582v0c0.498-0.374 1.012-0.792 1.542-1.255 0.524-0.466 1.108-0.966 1.75-1.497 0.648-0.528 1.354-1.034 2.116-1.52v0c1.001-0.744 2.031-1.127 3.09-1.146 1.053-0.024 2.043 0.314 2.971 1.013v0c1.692 1.276 2.459 2.984 2.301 5.124v0c-0.132 1.934-0.956 3.877-2.471 5.828v0c-1.102 1.461-2.439 2.707-4.009 3.737v0c-0.648 0.39-1.257 0.638-1.827 0.742-0.56 0.103-0.981 0.049-1.261-0.163-0.286-0.216-0.442-0.476-0.471-0.781-0.033-0.31 0.045-0.591 0.236-0.844 0.195-0.258 0.483-0.497 0.865-0.718 0.387-0.216 0.857-0.513 1.408-0.889v0c1.456-0.936 2.48-1.796 3.073-2.582 0.597-0.791 1.026-1.463 1.288-2.015 0.262-0.552 0.429-1.111 0.502-1.676v0c0.078-1.269-0.336-2.245-1.242-2.929v0c-0.648-0.489-1.301-0.663-1.959-0.522-0.662 0.147-1.331 0.461-2.005 0.944-0.678 0.488-1.318 0.988-1.92 1.499-0.611 0.513-1.219 1.028-1.825 1.545-0.611 0.513-1.227 0.975-1.848 1.386-0.625 0.417-1.254 0.696-1.887 0.838v0c-1.402 0.442-2.721 0.196-3.957-0.736v0c-1.576-1.189-2.219-2.713-1.929-4.571v0c0.153-1.608 0.91-3.313 2.269-5.115v0c1.38-1.829 2.754-3.09 4.121-3.782v0c1.182-0.573 2.07-0.636 2.664-0.188v0c0.225 0.17 0.336 0.4 0.332 0.69 0.006 0.289-0.076 0.546-0.246 0.772v0c-0.319 0.423-0.629 0.685-0.929 0.785-0.299 0.111-0.615 0.238-0.949 0.384-0.333 0.145-0.656 0.367-0.968 0.666v0c-0.639 0.492-1.329 1.23-2.07 2.213z" fill="black"></path><path d="M274.331 177.414v0c1.007 0.33 1.121 1.685 0.341 4.065v0c-0.583 1.778-1.481 2.874-2.695 3.288v0c-1.303 0.464-3.156 0.342-5.56-0.367v0l-10.563-3.46-0.723 2.207c-0.133 0.405-0.362 0.685-0.688 0.839-0.332 0.152-0.632 0.184-0.9 0.096v0c-0.268-0.088-0.503-0.277-0.705-0.568-0.202-0.291-0.225-0.671-0.071-1.142v0l0.79-2.413-5.369-1.976c-0.375-0.203-0.622-0.49-0.739-0.861-0.124-0.374-0.131-0.727-0.021-1.061 0.109-0.333 0.304-0.585 0.583-0.753 0.28-0.169 0.635-0.183 1.067-0.042v0l5.434 1.78 1.137-3.472c0.133-0.405 0.369-0.672 0.708-0.8 0.339-0.128 0.642-0.148 0.91-0.06v0c0.34 0.111 0.583 0.31 0.728 0.597 0.145 0.286 0.151 0.632 0.018 1.038v0l-1.138 3.472 8.906 2.917c2.478 0.812 4.007 1.218 4.585 1.22 0.572-0.001 1.02-0.151 1.343-0.451 0.323-0.3 0.572-0.718 0.747-1.253v0l0.496-2.01c0.122-0.373 0.334-0.622 0.635-0.748 0.293-0.121 0.541-0.149 0.744-0.082z" fill="black"></path></g></svg></g></svg></g></svg></g><g></g></svg></g><defs><mask></mask></defs></svg><rect width="280" height="280" fill="black" stroke="none" visibility="hidden"></rect></g></mask></svg><rect width="280" height="280" fill="black" stroke="none" visibility="hidden"></rect></g></mask><linearGradient x1="0" x2="1" y1="0.548" y2="0.55" id="cea9909d-1239-4bde-a07f-ef4e47a17b65"><stop stop-color="#ff6cab" offset="0"></stop><stop stop-color="#7366ff" offset="1"></stop></linearGradient><rect width="280" height="280" fill="url(#cea9909d-1239-4bde-a07f-ef4e47a17b65)" mask="url(#769f824c-c14d-4730-a555-bd8a852e0672)" data-fill-palette-color="accent"></rect></svg><rect width="280" height="280" fill="none" stroke="none" visibility="hidden"></rect></g></svg></g></svg>